<svg xmlns="http://www.w3.org/2000/svg" xmlns:xlink="http://www.w3.org/1999/xlink" id="Layer_1" x="0" y="0" version="1.1" viewBox="0 0 99.5 84.6" xml:space="preserve" style="enable-background:new 0 0 99.5 84.6"><style type="text/css">.st0{fill:#fff}</style><g id="Layer_2_1_"><g id="RAW"><path d="M96,58.1c-32,0-54.8-48.4-54.8-48.4l0,0C39.1,3.9,33.6,0,27.5,0c-2.3,0-4.7,0.6-6.7,1.7 c-0.2,0-0.4,0.1-0.7,0.4L0.9,13.2C-0.7,14.7-0.2,16,2,16h12l0.1,0.1H14c0,0,0,49,32,49h7.4v13.5h-7c-1.7,0-3,1.3-3,3s1.3,3,3,3h10 c1.7,0,3-1.3,3-3V65.1H96c1.9,0,3.5-1.6,3.5-3.5S97.9,58.1,96,58.1z M26.7,13c-1.3,0-2.4-1.1-2.4-2.4c0-1.3,1.1-2.4,2.4-2.4 c1.3,0,2.4,1.1,2.4,2.4C29.1,11.9,28.1,13,26.7,13C26.7,13,26.7,13,26.7,13z M64.8,53.1h-9.8c-12-0.5-22-9.5-23.8-21.4 c-0.2-1.1,0.6-2.1,1.7-2.3c1.1-0.2,2.1,0.6,2.3,1.7c1.5,10,9.8,17.5,19.9,18h9.7c1.1,0,2,0.9,2,2S66,53.2,64.8,53.1L64.8,53.1z" class="st0"/></g></g></svg>