<svg xmlns="http://www.w3.org/2000/svg" xmlns:xlink="http://www.w3.org/1999/xlink" id="Layer_1" x="0" y="0" version="1.1" viewBox="0 0 100.6 83.6" xml:space="preserve" style="enable-background:new 0 0 100.6 83.6"><style type="text/css">.st0{fill:#fff}</style><g id="Layer_2_1_"><g id="RAW"><rect width="11" height="5.1" x="52.9" y="24" class="st0"/><rect width="11" height="5.1" x="52.9" y="34.5" class="st0"/><path d="M67.6,13.8V3c-3.2,0.3-6.3,1.6-8.8,3.7L67.6,13.8z" class="st0"/><path d="M52.9,18.7H64l0,0l-9-7.2C53.8,13.6,53,16.1,52.9,18.7z" class="st0"/><path d="M95.1,2.9h-0.9v11h0.9c3,0,5.5-2.5,5.5-5.5S98.1,2.9,95.1,2.9z" class="st0"/><rect width="5.2" height="11" x="83.6" y="2.9" class="st0"/><rect width="5.2" height="11" x="73" y="2.9" class="st0"/><path d="M17,21.1c-0.9,0-1.8-0.4-2.5-1c-0.2-0.2-0.2-0.5,0-0.7c0,0,0,0,0,0c0.2-0.2,0.5-0.2,0.7,0c0,0,0,0,0,0 c1,1,2.6,1,3.5,0c0,0,0,0,0,0c0.2-0.2,0.5-0.2,0.7,0c0,0,0,0,0,0c0.2,0.2,0.2,0.5,0,0.7C18.8,20.7,17.9,21.1,17,21.1z" class="st0"/><circle cx="8.5" cy="12.4" r="1.5" class="st0"/><path d="M52.9,44.9v8.8l-23-30.8c4-4.5,4.1-11.3,0.4-16c0.2-0.1,0.3-0.3,0.5-0.4c1.6-1.6,2.3-4,1.7-6.2 c-2.2-0.6-4.6,0-6.3,1.7c-0.4,0.4-0.7,0.8-1,1.2c-1.5-0.6-3.1-0.9-4.7-0.9h-8c-1.4,0-2.8,0.3-4.2,0.7c-0.2-0.4-0.5-0.7-0.8-1 c-1.6-1.7-4-2.3-6.3-1.7c-0.6,2.2,0,4.6,1.7,6.3c0,0,0.1,0.1,0.1,0.1c-4.5,5.2-3.9,13.1,1.4,17.6c1.9,1.7,4.3,2.7,6.9,2.9L17.1,60 c-6.5,0.9-11,6.9-10.2,13.4c0.8,5.8,5.8,10.2,11.7,10.3h33.2c4.6,0,8.8-2.7,10.8-6.9c0.8-1,1.3-2.2,1.3-3.5V44.9H52.9z M8.5,16 c-2,0-3.6-1.6-3.6-3.6s1.6-3.6,3.6-3.6c2,0,3.6,1.6,3.6,3.6c0,0,0,0,0,0C12.1,14.4,10.5,16,8.5,16C8.5,16,8.5,16,8.5,16z M17,23 c-2.4,0-4.4-2-4.4-4.4c0-0.8,0.2-1.7,0.7-2.4l0,0L17,9.7l3.6,6.4c0.1,0.2,0.2,0.3,0.3,0.5l0.1,0.2l0,0c1,2.2,0,4.8-2.2,5.8 C18.2,22.9,17.6,23,17,23z M25.5,16c-2,0-3.6-1.6-3.6-3.6c0-2,1.6-3.6,3.6-3.6c2,0,3.6,1.6,3.6,3.6c0,0,0,0,0,0 C29.1,14.4,27.5,16,25.5,16C25.5,16,25.5,16,25.5,16z" class="st0"/><circle cx="25.5" cy="12.4" r="1.5" class="st0"/></g></g></svg>