<svg xmlns="http://www.w3.org/2000/svg" xmlns:xlink="http://www.w3.org/1999/xlink" width="90" height="111.156" viewBox="0 0 90 111.156"><defs><style>.lock{fill:#fff;fill-rule:evenodd;filter:url(#lock-filter)}</style><filter id="lock-filter" width="90" height="111.156" x="595" y="419.844" filterUnits="userSpaceOnUse"><feOffset dy="4" in="SourceAlpha" result="offset"/><feGaussianBlur result="blur" stdDeviation="1.732"/><feFlood flood-opacity=".12" result="flood"/><feComposite in2="blur" operator="in" result="composite"/><feOffset dy="10" in="SourceAlpha" result="offset-2"/><feGaussianBlur result="blur-2" stdDeviation="3.162"/><feFlood flood-opacity=".29" result="flood-2"/><feComposite in2="blur-2" operator="in" result="composite-2"/><feBlend in2="composite" mode="multiply" result="blend"/><feBlend in="SourceGraphic" result="blend-2"/><feGaussianBlur in="SourceAlpha" result="blur-3" stdDeviation="1"/><feFlood flood-color="#fff" flood-opacity=".43" result="flood-3"/><feComposite in2="blur-3" operator="out" result="composite-3"/><feOffset dx="-1.176" dy="1.618" result="offset-3"/><feComposite in2="SourceAlpha" operator="in" result="composite-4"/><feBlend in2="blend-2" mode="screen" result="blend-3"/><feGaussianBlur in="SourceAlpha" result="blur-4" stdDeviation="1"/><feFlood flood-color="#2f2722" flood-opacity=".29" result="flood-4"/><feComposite in2="blur-4" operator="out" result="composite-5"/><feOffset dx="-.707" dy="-.707" result="offset-4"/><feComposite in2="SourceAlpha" operator="in" result="composite-6"/><feBlend in2="blend-3" mode="multiply" result="blend-4"/></filter></defs><path d="M665.917,450.214h-4.37v-8.681a21.851,21.851,0,0,0-43.7,0v8.681h-4.37a8.736,8.736,0,0,0-8.74,8.681v43.4a8.736,8.736,0,0,0,8.74,8.68h52.44a8.736,8.736,0,0,0,8.74-8.68V458.9A8.736,8.736,0,0,0,665.917,450.214ZM639.7,489.277a8.681,8.681,0,1,1,8.74-8.681A8.736,8.736,0,0,1,639.7,489.277Zm13.547-39.063H626.15v-8.681a13.547,13.547,0,0,1,27.094,0v8.681Z" class="lock" transform="translate(-595 -419.844)"/></svg>